<?xml version="1.0" encoding="utf-8"?>
<!-- Generator: Adobe Illustrator 18.1.1, SVG Export Plug-In . SVG Version: 6.00 Build 0)  -->
<svg version="1.1" id="Layer_1" xmlns="http://www.w3.org/2000/svg" xmlns:xlink="http://www.w3.org/1999/xlink" x="0px" y="0px"
	 viewBox="-166 85.2 256 256" enable-background="new -166 85.2 256 256" xml:space="preserve">
<g id="Artboard">
</g>
<g id="Multicolor">
	<g>
		<circle fill="#32BEA6" cx="-38" cy="213.2" r="121.8"/>
	</g>
	<path fill="#3E3E3F" d="M-78.4,234.2l-12.5-27.6c-1.2-2.7-4.3-3.8-7-2.6c-2.7,1.2-3.8,4.3-2.6,7l12.5,27.6L-78.4,234.2z"/>
	<g>
		<polygon fill="#F3B607" points="-69,239.8 -71.2,230.9 -95.6,242 -86.7,248.6 		"/>
	</g>
	<g>
		<path fill="#3E3E3F" d="M24,250.8c-4.9-3.1-22.1-8.8-35.4-15.5c3.1-14.7,11.1-39.9,6.6-68.7c-2-13.1-24.4-24.4-33.2-24.4
			s-31.2,11.2-33.2,24.4c-4.4,28.8,3.6,54,6.6,68.7c-13.3,6.6-30.6,12.4-35.4,15.5c-6.7,4.3-8.9,33.2-8.9,33.2H32.9
			C32.9,284.1,30.7,255.1,24,250.8z"/>
	</g>
	<path fill="#5B5C5F" d="M-38,253.6V142.3c-8.9,0-31.2,11.2-33.2,24.4c-4.4,28.8,3.6,54,6.6,68.7L-38,253.6z"/>
	<g>
		<path fill="#FBD7D7" d="M-38,182.2c-15.5,0-26.6,2.2-26.6,2.2v11.1c0,0,15.5,13.3,26.6,13.3s26.6-13.3,26.6-13.3v-11.1
			C-11.4,184.4-22.5,182.2-38,182.2z"/>
	</g>
	<g>
		<path fill="#FBC8C8" d="M-11.4,195.5v-11.1c0,0-11.1-2.2-26.6-2.2v26.6C-26.9,208.8-11.4,195.5-11.4,195.5z"/>
	</g>
	<g>
		<path fill="#3E3E3F" d="M-44.7,193.3c0-2.4-2-4.4-4.4-4.4c0,0,0,0,0,0c0,0,0,0.1,0,0.1c0,2.4-2,4.4-4.4,4.4c0.1,2.4,2,4.3,4.4,4.3
			C-46.6,197.7-44.7,195.7-44.7,193.3z"/>
	</g>
	<g>
		<path fill="#3E3E3F" d="M-22.5,193.3c0-2.4-2-4.4-4.4-4.4c0,0,0,0,0,0c0,0,0,0.1,0,0.1c0,2.4-2,4.4-4.4,4.4c0.1,2.4,2,4.3,4.4,4.3
			C-24.5,197.7-22.5,195.7-22.5,193.3z"/>
	</g>
	<path fill="#E2E4E5" d="M-31.5,258.1l-33.1-22.7c-3.2,1.6-6.6,3.1-10,4.6l34.1,24.7L-31.5,258.1z"/>
	<g>
		<path fill="#F1F2F2" d="M-41.6,284.1l46.8-41.4c-3.3-1.3-6.7-2.8-10-4.3l-61.9,45.6H-41.6z"/>
	</g>
</g>
</svg>
