<?xml version="1.0" encoding="utf-8"?>
<!-- Generator: Adobe Illustrator 18.1.1, SVG Export Plug-In . SVG Version: 6.00 Build 0)  -->
<svg version="1.1" xmlns="http://www.w3.org/2000/svg" xmlns:xlink="http://www.w3.org/1999/xlink" x="0px" y="0px"
	 viewBox="-93 158.2 110 110" enable-background="new -93 158.2 110 110" xml:space="preserve">
<g id="Layer_2" display="none">
	<rect x="-93" y="158.2" display="inline" fill="#00AAAA" width="110" height="110"/>
</g>
<g id="Layer_1">
	<g id="Artboard">
	</g>
	<path fill="#FFFFFF" d="M-40.6,171.3v-5.3c0-0.5-0.2-1.1-0.6-1.5c-0.4-0.4-0.9-0.6-1.5-0.6s-1.1,0.2-1.5,0.6L-57,177.4l12.9,12.7
		c0.4,0.4,0.9,0.6,1.5,0.6s1.1-0.2,1.5-0.6c0.4-0.4,0.6-0.9,0.6-1.5v-5.1c5.6,0.1,11.8,1.2,16.4,8.2v-2.1
		C-24.1,180.2-31.3,172.3-40.6,171.3z"/>
	<g id="Multicolor">
		<g>
			<path fill="#E2E4E5" d="M-7.9,253.2h-60.2v0c0-2.1,1.7-3.7,3.7-3.7h52.7C-9.6,249.4-7.9,251.1-7.9,253.2L-7.9,253.2z"/>
			<rect x="-64.3" y="215.5" fill="#FFFFFF" width="52.7" height="33.8"/>
			<path fill="#DF2C2C" d="M-59.5,215.5c0,2.1-1.9,3.8-4.3,3.8c-2.4,0-4.3-1.7-4.3-3.8H-59.5z"/>
			<path fill="#CFD3D4" d="M-50.9,215.5c0,2.1-1.9,3.8-4.3,3.8c-2.4,0-4.3-1.7-4.3-3.8H-50.9z"/>
			<path fill="#DF2C2C" d="M-42.3,215.5c0,2.1-1.9,3.8-4.3,3.8c-2.4,0-4.3-1.7-4.3-3.8H-42.3z"/>
			<path fill="#CFD3D4" d="M-33.7,215.5c0,2.1-1.9,3.8-4.3,3.8s-4.3-1.7-4.3-3.8H-33.7z"/>
			<path fill="#CFD3D4" d="M-16.5,215.5c0,2.1-1.9,3.8-4.3,3.8c-2.4,0-4.3-1.7-4.3-3.8H-16.5z"/>
			<path fill="#DF2C2C" d="M-25.1,215.5c0,2.1-1.9,3.8-4.3,3.8c-2.4,0-4.3-1.7-4.3-3.8H-25.1z"/>
			<path fill="#DF2C2C" d="M-7.9,215.5c0,2.1-1.9,3.8-4.3,3.8c-2.4,0-4.3-1.7-4.3-3.8H-7.9z"/>
			<polygon fill="#FA5655" points="-68.1,215.5 -59.5,215.5 -52,196.7 -59.5,196.7 			"/>
			<polygon fill="#FFFFFF" points="-59.5,215.5 -50.9,215.5 -45.5,196.7 -52,196.7 			"/>
			<polygon fill="#FA5655" points="-50.9,215.5 -42.3,215.5 -39.1,196.7 -45.5,196.7 			"/>
			<polygon fill="#FFFFFF" points="-42.3,215.5 -33.7,215.5 -33.7,196.7 -39.1,196.7 			"/>
			<polygon fill="#FA5655" points="-7.9,215.5 -16.5,215.5 -21.9,196.7 -15.4,196.7 			"/>
			<polygon fill="#FFFFFF" points="-16.5,215.5 -25.1,215.5 -28.3,196.7 -21.9,196.7 			"/>
			<polygon fill="#FA5655" points="-25.1,215.5 -33.7,215.5 -33.7,196.7 -28.3,196.7 			"/>
			<rect x="-60.6" y="223.1" fill="#6FDAF1" width="26.3" height="15"/>
			<polygon fill="#40C9E7" points="-34.2,238.1 -60.6,238.1 -34.2,223.1 			"/>
			<rect x="-28.6" y="223.1" fill="#40C9E7" width="13.2" height="12.2"/>
			<rect x="-28.6" y="238.1" fill="#40C9E7" width="13.2" height="11.3"/>
			<path fill="#0D9681" d="M-35.2,242.8c0.2-3.1-3.2-5.3-7-5.3c-2.2,0-4.1,0.7-5.4,1.8c-0.6-1.1-1.5-1.8-2.6-1.8
				c-1,0-1.9,0.7-2.5,1.6c-0.7-1.8-2.5-3.1-4.5-3.1c-2.4,0-4.3,1.7-4.7,4c-0.3-0.3-0.7-0.5-1.2-0.5c-1.3,0-2.3,1.4-2.1,3.1
				C-65.2,242.8-35.2,242.8-35.2,242.8z"/>
			<rect x="-65.3" y="242.8" fill="#9C6144" width="30.1" height="6.6"/>
			<rect x="-65.3" y="242.8" fill="#AF7653" width="30.1" height="1.9"/>
		</g>
	</g>
</g>
</svg>
