<svg xmlns="http://www.w3.org/2000/svg" style="display: none;">
    <symbol id="icon-angle-down" viewBox="0 0 658 1024">
    	<title>angle-down</title>
    	<path class="path1" d="M614.286 420.571q0 7.429-5.714 13.143l-266.286 266.286q-5.714 5.714-13.143 5.714t-13.143-5.714l-266.286-266.286q-5.714-5.714-5.714-13.143t5.714-13.143l28.571-28.571q5.714-5.714 13.143-5.714t13.143 5.714l224.571 224.571 224.571-224.571q5.714-5.714 13.143-5.714t13.143 5.714l28.571 28.571q5.714 5.714 5.714 13.143z"></path>
    </symbol>

    <symbol id="icon-angle-left" viewBox="0 0 366 1024">
    	<title>angle-left</title>
    	<path class="path1" d="M358.286 310.857q0 7.429-5.714 13.143l-224.571 224.571 224.571 224.571q5.714 5.714 5.714 13.143t-5.714 13.143l-28.571 28.571q-5.714 5.714-13.143 5.714t-13.143-5.714l-266.286-266.286q-5.714-5.714-5.714-13.143t5.714-13.143l266.286-266.286q5.714-5.714 13.143-5.714t13.143 5.714l28.571 28.571q5.714 5.714 5.714 13.143z"></path>
    </symbol>

    <symbol id="icon-angle-right" viewBox="0 0 366 1024">
    	<title>angle-right</title>
    	<path class="path1" d="M340 548.571q0 7.429-5.714 13.143l-266.286 266.286q-5.714 5.714-13.143 5.714t-13.143-5.714l-28.571-28.571q-5.714-5.714-5.714-13.143t5.714-13.143l224.571-224.571-224.571-224.571q-5.714-5.714-5.714-13.143t5.714-13.143l28.571-28.571q5.714-5.714 13.143-5.714t13.143 5.714l266.286 266.286q5.714 5.714 5.714 13.143z"></path>
    </symbol>

    <symbol id="icon-angle-up" viewBox="0 0 658 1024">
    	<title>angle-up</title>
    	<path class="path1" d="M614.286 676.571q0 7.429-5.714 13.143l-28.571 28.571q-5.714 5.714-13.143 5.714t-13.143-5.714l-224.571-224.571-224.571 224.571q-5.714 5.714-13.143 5.714t-13.143-5.714l-28.571-28.571q-5.714-5.714-5.714-13.143t5.714-13.143l266.286-266.286q5.714-5.714 13.143-5.714t13.143 5.714l266.286 266.286q5.714 5.714 5.714 13.143z"></path>
    </symbol>

    <symbol id="icon-facebook-square" viewBox="0 0 877.7142857142858 1024">
    	<title>facebook-square</title>
    	<path class="path1" d="M713.143 73.143q68 0 116.286 48.286t48.286 116.286v548.571q0 68-48.286 116.286t-116.286 48.286h-107.429v-340h113.714l17.143-132.571h-130.857v-84.571q0-32 13.429-48t52.286-16l69.714-0.571v-118.286q-36-5.143-101.714-5.143-77.714 0-124.286 45.714t-46.571 129.143v97.714h-114.286v132.571h114.286v340h-304q-68 0-116.286-48.286t-48.286-116.286v-548.571q0-68 48.286-116.286t116.286-48.286h548.571z"></path>
    </symbol>
</svg>
