<?xml version="1.0" encoding="utf-8"?>
<!-- Generator: Adobe Illustrator 18.1.1, SVG Export Plug-In . SVG Version: 6.00 Build 0)  -->
<svg version="1.1" id="Layer_1" xmlns="http://www.w3.org/2000/svg" xmlns:xlink="http://www.w3.org/1999/xlink" x="0px" y="0px"
	 viewBox="1213.8 648.5 13 13" enable-background="new 1213.8 648.5 13 13" xml:space="preserve">
<path d="M1226.7,659.6l-3.3-3.3c0.5-0.8,0.8-1.7,0.8-2.7c0-2.8-2.3-5.1-5.1-5.1c-2.8,0-5.1,2.3-5.1,5.1c0,2.8,2.3,5.1,5.1,5.1
	c1,0,1.9-0.3,2.7-0.8l3.3,3.3c0.2,0.2,0.6,0.2,0.9,0l0.9-0.9C1226.9,660.2,1226.9,659.8,1226.7,659.6z M1219,657.1
	c-1.9,0-3.4-1.5-3.4-3.4c0-1.9,1.5-3.4,3.4-3.4s3.4,1.5,3.4,3.4C1222.4,655.5,1220.9,657.1,1219,657.1z"/>
</svg>
