<?xml version="1.0" encoding="utf-8"?>
<!-- Generator: Adobe Illustrator 17.0.0, SVG Export Plug-In . SVG Version: 6.00 Build 0)  -->
<!DOCTYPE svg PUBLIC "-//W3C//DTD SVG 1.1//EN" "http://www.w3.org/Graphics/SVG/1.1/DTD/svg11.dtd">
<svg version="1.1" id="Layer_1" xmlns="http://www.w3.org/2000/svg" xmlns:xlink="http://www.w3.org/1999/xlink" x="0px" y="0px"
	 width="162px" height="27px" viewBox="0 0 162 27" enable-background="new 0 0 162 27" xml:space="preserve">
<g>
	<g id="logotype_5_">
		<path fill="#FFFFFF" d="M45.546,6.825h5.173c3.105,0,4.658,1.549,4.658,4.647v4.009c0,3.161-1.546,4.74-4.637,4.74h-3.626v2.577
			c0,1.052-0.515,1.577-1.546,1.577c-1.031,0-1.546-0.512-1.546-1.535V8.402C44.021,7.35,44.529,6.825,45.546,6.825z M47.113,9.937
			v7.193h3.607c1.044,0,1.567-0.529,1.567-1.587v-4.112c0-0.996-0.522-1.494-1.567-1.494L47.113,9.937L47.113,9.937z"/>
		<path fill="#FFFFFF" d="M59.727,20.222c-1.045,0-1.567-0.522-1.567-1.566V9.937c-1.044,0-1.56-0.497-1.546-1.495
			c0-1.044,0.515-1.577,1.546-1.598l1.546-0.021c1.031,0.021,1.546,0.539,1.546,1.556v10.275
			C61.251,19.7,60.743,20.222,59.727,20.222z M58.866,2.909c-0.244,0.131-0.435,0.32-0.572,0.567S58.088,3.98,58.088,4.25
			c0,0.261,0.069,0.514,0.206,0.758c0.138,0.244,0.326,0.433,0.567,0.567c0.24,0.135,0.495,0.2,0.763,0.2
			c0.261,0,0.514-0.067,0.758-0.2c0.244-0.135,0.433-0.323,0.567-0.567c0.135-0.244,0.2-0.496,0.2-0.758
			c0-0.268-0.069-0.525-0.206-0.774s-0.329-0.437-0.572-0.567c-0.243-0.131-0.493-0.196-0.747-0.196
			C59.362,2.713,59.11,2.778,58.866,2.909z"/>
		<path fill="#FFFFFF" d="M73.545,20.243c-1.052,0-1.577-0.522-1.577-1.566v-2.566L66.847,16.1l-0.011,2.577
			c0,1.044-0.514,1.566-1.545,1.566s-1.546-0.515-1.546-1.546v-7.11c0-3.161,1.546-4.741,4.637-4.741l5.132,0.011
			c1.031,0,1.546,0.508,1.546,1.525v10.296C75.061,19.72,74.555,20.243,73.545,20.243z M71.968,12.998V9.937h-3.556
			c-1.052,0-1.577,0.529-1.577,1.588v1.473C66.835,12.998,71.968,12.998,71.968,12.998z"/>
		<path fill="#FFFFFF" d="M77.584,18.676V4.228c0-1.024,0.515-1.535,1.546-1.535s1.546,0.525,1.546,1.577v2.577h3.627
			c3.092,0,4.637,1.58,4.637,4.741v4.019c0,3.091-1.553,4.637-4.658,4.637h-5.173C78.093,20.243,77.584,19.72,77.584,18.676z
			 M84.284,17.141c1.044,0,1.566-0.497,1.566-1.495v-4.122c0-1.059-0.522-1.588-1.566-1.588h-3.607v7.204
			C80.676,17.141,84.284,17.141,84.284,17.141z"/>
		<path fill="#FFFFFF" d="M102.36,18.717c0,1.017-0.515,1.525-1.546,1.525h-5.173c-3.091,0-4.637-1.58-4.637-4.74V8.391
			c0-1.031,0.514-1.546,1.545-1.546h8.183c1.079-0.006,1.618,0.504,1.618,1.535c-0.007,1.004-0.532,1.514-1.577,1.535l-6.678-0.01
			v2.061l4.627-0.021c1.044,0.014,1.566,0.546,1.566,1.598c0.007,1.004-0.504,1.505-1.535,1.505l-4.658,0.01v0.515
			c0,1.052,0.525,1.577,1.577,1.577l5.173,0.011C101.854,17.161,102.36,17.679,102.36,18.717z"/>
		<path fill="#FFFFFF" d="M114.262,20.243h-5.173c-3.112,0-4.668-1.546-4.668-4.637v-4.019c0-3.161,1.546-4.741,4.637-4.741h3.627
			V4.269c0-1.052,0.515-1.577,1.546-1.577s1.546,0.512,1.546,1.535v14.447C115.776,19.72,115.272,20.243,114.262,20.243z
			 M112.685,17.141V9.937h-3.597c-1.052,0-1.577,0.529-1.577,1.588v4.122c0,0.996,0.522,1.495,1.567,1.495
			C109.078,17.141,112.685,17.141,112.685,17.141z"/>
		<path fill="#FFFFFF" d="M120.97,20.222c-1.044,0-1.567-0.522-1.567-1.566V9.937c-1.044,0-1.56-0.497-1.546-1.495
			c0-1.044,0.514-1.577,1.546-1.598l1.546-0.021c1.031,0.021,1.546,0.539,1.546,1.556v10.275
			C122.496,19.7,121.987,20.222,120.97,20.222z M120.109,2.909c-0.244,0.131-0.435,0.32-0.571,0.567
			c-0.138,0.247-0.206,0.504-0.206,0.774c0,0.261,0.069,0.514,0.206,0.758s0.326,0.433,0.567,0.567c0.24,0.135,0.495,0.2,0.763,0.2
			c0.261,0,0.513-0.067,0.758-0.2c0.244-0.135,0.433-0.323,0.567-0.567s0.2-0.496,0.2-0.758c0-0.268-0.069-0.525-0.206-0.774
			c-0.138-0.247-0.329-0.437-0.572-0.567c-0.243-0.131-0.493-0.196-0.747-0.196C120.607,2.713,120.354,2.778,120.109,2.909z"/>
		<path fill="#FFFFFF" d="M135.923,18.717c0,1.017-0.515,1.525-1.546,1.525h-5.173c-3.091,0-4.637-1.58-4.637-4.74v-3.978
			c0-3.119,1.546-4.679,4.637-4.679h5.091c1.079-0.006,1.618,0.504,1.618,1.535c-0.007,1.004-0.532,1.514-1.577,1.535h-5.173
			c-1.004-0.006-1.505,0.532-1.505,1.618v4.04c0,1.052,0.525,1.577,1.577,1.577l5.173,0.011
			C135.419,17.161,135.923,17.679,135.923,18.717z"/>
		<path fill="#FFFFFF" d="M147.784,20.243c-1.052,0-1.577-0.522-1.577-1.566v-2.566l-5.121-0.011l-0.011,2.577
			c0,1.044-0.514,1.566-1.545,1.566c-1.031,0-1.546-0.515-1.546-1.546v-7.11c0-3.161,1.546-4.741,4.637-4.741l5.132,0.011
			c1.031,0,1.546,0.508,1.546,1.525v10.296C149.299,19.72,148.794,20.243,147.784,20.243z M146.208,12.998V9.937h-3.556
			c-1.052,0-1.577,0.529-1.577,1.588v1.473C141.075,12.998,146.208,12.998,146.208,12.998z"/>
		<path fill="#FFFFFF" d="M160.203,9.937h-4.133c-1.052,0-1.577,0.35-1.577,1.052c0,0.66,0.529,0.989,1.587,0.989h1
			c3.078,0.049,4.613,1.421,4.607,4.123c-0.014,2.741-1.549,4.116-4.607,4.122l-4.173-0.011c-0.996,0.007-1.498-0.467-1.505-1.421
			c0.006-1.072,0.504-1.611,1.495-1.618h4.164c1.024,0,1.542-0.35,1.556-1.052c0-0.681-0.508-1.027-1.525-1.042h-0.999
			c-3.112,0.014-4.665-1.371-4.659-4.154c-0.02-2.72,1.515-4.081,4.607-4.081l4.122,0.011c1.031,0,1.546,0.508,1.546,1.525
			C161.686,9.397,161.186,9.916,160.203,9.937z"/>
	</g>
	<g id="symbol_4_">
		<path fill="#FFFFFF" d="M23.147,11.579c0.005-1.278,0-10.286,0-10.286S23.143,0,21.856,0C20.57,0,0,0,0,0v26.998
			c0,0,10.275,0,11.56,0c1.297,0,1.297-1.286,1.297-1.286V14.141c0,0,0-1.286,1.286-1.286s7.713,0,7.713,0
			S23.143,12.857,23.147,11.579z"/>
		<path fill="#00AAAA" d="M24.428,1.286c0,0,0,10.277,0,11.571c0,1.286-1.288,1.286-1.288,1.286c-6.155,0-6.155,0-7.705,0
			c-1.292,0-1.292,1.286-1.292,1.286v10.286c0,0,0,1.286,1.286,1.286s21.856,0,21.856,0l0.002-26.998c0,0-8.789,0-11.575,0
			C24.428,0,24.428,1.286,24.428,1.286z"/>
	</g>
</g>
</svg>
